HIERARCHY
ROOT Hips
{
  OFFSET 5.72205e-005 65.662 3.42586
  CHANNELS 6 Xposition Yposition Zposition Zrotation Xrotation Yrotation
  JOINT Chest
  {
    OFFSET 0 8.7983 -4.7612
    CHANNELS 6 Xposition Yposition Zposition Zrotation Xrotation Yrotation
    JOINT Chest2
    {
      OFFSET 0 8.0291 0.4195
      CHANNELS 6 Xposition Yposition Zposition Zrotation Xrotation Yrotation
      JOINT Chest3
      {
        OFFSET 0 9.9351 -2.2114
        CHANNELS 6 Xposition Yposition Zposition Zrotation Xrotation Yrotation
        JOINT Neck
        {
          OFFSET 0 22.3885 -0.4656
          CHANNELS 6 Xposition Yposition Zposition Zrotation Xrotation Yrotation
          JOINT Head
          {
            OFFSET -0.0001 12.643 3.4389
            CHANNELS 6 Xposition Yposition Zposition Zrotation Xrotation Yrotation
            End Site
            {
              OFFSET 0.0001 17.6655 0.5274
            }
          }
        }
        JOINT LeftCollar
        {
          OFFSET 2.2603 21.606 7.4023
          CHANNELS 6 Xposition Yposition Zposition Zrotation Xrotation Yrotation
          JOINT LeftShoulder
          {
            OFFSET 13.5163 -1.1332 -5.0146
            CHANNELS 6 Xposition Yposition Zposition Zrotation Xrotation Yrotation
            JOINT LeftElbow
            {
              OFFSET -0.0995 -28.05 -0.2431
              CHANNELS 6 Xposition Yposition Zposition Zrotation Xrotation Yrotation
              JOINT LeftWrist
              {
                OFFSET 0.0679 -23.3996 -0.1402
                CHANNELS 6 Xposition Yposition Zposition Zrotation Xrotation Yrotation
                JOINT LeftFinger1
                {
                  OFFSET 0.7932 -9.069 2.5189
                  CHANNELS 6 Xposition Yposition Zposition Zrotation Xrotation Yrotation
                  JOINT LeftFinger11
                  {
                    OFFSET -0.8272 -3.3923 0.5977
                    CHANNELS 6 Xposition Yposition Zposition Zrotation Xrotation Yrotation
                    JOINT LeftFinger12
                    {
                      OFFSET -0.5649 -2.3158 0.4082
                      CHANNELS 6 Xposition Yposition Zposition Zrotation Xrotation Yrotation
                      End Site
                      {
                        OFFSET -0.4919 -1.6479 0.2673
                      }
                    }
                  }
                }
                JOINT LeftFinger2
                {
                  OFFSET 0.9159 -9.2044 0.2193
                  CHANNELS 6 Xposition Yposition Zposition Zrotation Xrotation Yrotation
                  JOINT LeftFinger21
                  {
                    OFFSET 0.0117 -4.1944 -0.0248
                    CHANNELS 6 Xposition Yposition Zposition Zrotation Xrotation Yrotation
                    JOINT LeftFinger22
                    {
                      OFFSET 0.0071 -2.3249 -0.0142
                      CHANNELS 6 Xposition Yposition Zposition Zrotation Xrotation Yrotation
                      End Site
                      {
                        OFFSET -0.1475 -2.0882 0.0028
                      }
                    }
                  }
                }
                JOINT LeftFinger3
                {
                  OFFSET 0.6113 -8.7231 -2.0637
                  CHANNELS 6 Xposition Yposition Zposition Zrotation Xrotation Yrotation
                  JOINT LeftFinger31
                  {
                    OFFSET -0.1927 -3.8059 -0.2383
                    CHANNELS 6 Xposition Yposition Zposition Zrotation Xrotation Yrotation
                    JOINT LeftFinger32
                    {
                      OFFSET -0.1091 -2.1688 -0.1362
                      CHANNELS 6 Xposition Yposition Zposition Zrotation Xrotation Yrotation
                      End Site
                      {
                        OFFSET -0.2358 -1.9176 -0.0906
                      }
                    }
                  }
                }
                JOINT LeftFinger4
                {
                  OFFSET -0.6151 -8.0947 -3.5641
                  CHANNELS 6 Xposition Yposition Zposition Zrotation Xrotation Yrotation
                  JOINT LeftFinger41
                  {
                    OFFSET -0.4882 -2.341 -0.6462
                    CHANNELS 6 Xposition Yposition Zposition Zrotation Xrotation Yrotation
                    JOINT LeftFinger42
                    {
                      OFFSET -0.3575 -1.7167 -0.4742
                      CHANNELS 6 Xposition Yposition Zposition Zrotation Xrotation Yrotation
                      End Site
                      {
                        OFFSET -0.4187 -1.5237 -0.3496
                      }
                    }
                  }
                }
                JOINT LeftFinger0
                {
                  OFFSET -1.42 -1.8761 1.4223
                  CHANNELS 6 Xposition Yposition Zposition Zrotation Xrotation Yrotation
                  JOINT LeftFinger01
                  {
                    OFFSET -1.1471 -3.4929 2.6334
                    CHANNELS 6 Xposition Yposition Zposition Zrotation Xrotation Yrotation
                    JOINT LeftFinger02
                    {
                      OFFSET -0.823 -2.3 1.6571
                      CHANNELS 6 Xposition Yposition Zposition Zrotation Xrotation Yrotation
                      End Site
                      {
                        OFFSET -0.5822 -1.6914 1.1582
                      }
                    }
                  }
                }
              }
            }
          }
        }
        JOINT RightCollar
        {
          OFFSET -2.2603 21.606 7.4023
          CHANNELS 6 Xposition Yposition Zposition Zrotation Xrotation Yrotation
          JOINT RightShoulder
          {
            OFFSET -13.5187 -1.1334 -5.0155
            CHANNELS 6 Xposition Yposition Zposition Zrotation Xrotation Yrotation
            JOINT RightElbow
            {
              OFFSET 0.0994 -28.0499 -0.2431
              CHANNELS 6 Xposition Yposition Zposition Zrotation Xrotation Yrotation
              JOINT RightWrist
              {
                OFFSET -0.0679 -23.3996 -0.1402
                CHANNELS 6 Xposition Yposition Zposition Zrotation Xrotation Yrotation
                JOINT RightFinger1
                {
                  OFFSET -0.7932 -9.0691 2.5189
                  CHANNELS 6 Xposition Yposition Zposition Zrotation Xrotation Yrotation
                  JOINT RightFinger11
                  {
                    OFFSET 0.8272 -3.3923 0.5977
                    CHANNELS 6 Xposition Yposition Zposition Zrotation Xrotation Yrotation
                    JOINT RightFinger12
                    {
                      OFFSET 0.565 -2.3158 0.4082
                      CHANNELS 6 Xposition Yposition Zposition Zrotation Xrotation Yrotation
                      End Site
                      {
                        OFFSET 0.4919 -1.6479 0.2673
                      }
                    }
                  }
                }
                JOINT RightFinger2
                {
                  OFFSET -0.916 -9.2044 0.2193
                  CHANNELS 6 Xposition Yposition Zposition Zrotation Xrotation Yrotation
                  JOINT RightFinger21
                  {
                    OFFSET -0.0117 -4.1944 -0.0248
                    CHANNELS 6 Xposition Yposition Zposition Zrotation Xrotation Yrotation
                    JOINT RightFinger22
                    {
                      OFFSET -0.0071 -2.3249 -0.0142
                      CHANNELS 6 Xposition Yposition Zposition Zrotation Xrotation Yrotation
                      End Site
                      {
                        OFFSET 0.1475 -2.0882 0.0028
                      }
                    }
                  }
                }
                JOINT RightFinger3
                {
                  OFFSET -0.6113 -8.7231 -2.0637
                  CHANNELS 6 Xposition Yposition Zposition Zrotation Xrotation Yrotation
                  JOINT RightFinger31
                  {
                    OFFSET 0.1927 -3.8059 -0.2383
                    CHANNELS 6 Xposition Yposition Zposition Zrotation Xrotation Yrotation
                    JOINT RightFinger32
                    {
                      OFFSET 0.1091 -2.1688 -0.1362
                      CHANNELS 6 Xposition Yposition Zposition Zrotation Xrotation Yrotation
                      End Site
                      {
                        OFFSET 0.2358 -1.9176 -0.0906
                      }
                    }
                  }
                }
                JOINT RightFinger4
                {
                  OFFSET 0.6151 -8.0947 -3.564
                  CHANNELS 6 Xposition Yposition Zposition Zrotation Xrotation Yrotation
                  JOINT RightFinger41
                  {
                    OFFSET 0.4882 -2.341 -0.6462
                    CHANNELS 6 Xposition Yposition Zposition Zrotation Xrotation Yrotation
                    JOINT RightFinger42
                    {
                      OFFSET 0.3574 -1.7166 -0.4742
                      CHANNELS 6 Xposition Yposition Zposition Zrotation Xrotation Yrotation
                      End Site
                      {
                        OFFSET 0.4187 -1.5237 -0.3496
                      }
                    }
                  }
                }
                JOINT RightFinger0
                {
                  OFFSET 1.4199 -1.8761 1.4221
                  CHANNELS 6 Xposition Yposition Zposition Zrotation Xrotation Yrotation
                  JOINT RightFinger01
                  {
                    OFFSET 1.1472 -3.4929 2.6336
                    CHANNELS 6 Xposition Yposition Zposition Zrotation Xrotation Yrotation
                    JOINT RightFinger02
                    {
                      OFFSET 0.8229 -2.3 1.6571
                      CHANNELS 6 Xposition Yposition Zposition Zrotation Xrotation Yrotation
                      End Site
                      {
                        OFFSET 0.5822 -1.6914 1.1582
                      }
                    }
                  }
                }
              }
            }
          }
        }
      }
    }
  }
  JOINT RightHip
  {
    OFFSET -9.412 3.9771 -0.7758
    CHANNELS 6 Xposition Yposition Zposition Zrotation Xrotation Yrotation
    JOINT RightKnee
    {
      OFFSET -0.7531 -40.938 0
      CHANNELS 6 Xposition Yposition Zposition Zrotation Xrotation Yrotation
      JOINT RightAnkle
      {
        OFFSET 0 -40.1986 0
        CHANNELS 6 Xposition Yposition Zposition Zrotation Xrotation Yrotation
        JOINT RightToe
        {
          OFFSET 0 -4.4182 9.239
          CHANNELS 6 Xposition Yposition Zposition Zrotation Xrotation Yrotation
          End Site
          {
            OFFSET 0 0 6.1981
          }
        }
      }
    }
  }
  JOINT LeftHip
  {
    OFFSET 9.4119 3.9773 -0.7758
    CHANNELS 6 Xposition Yposition Zposition Zrotation Xrotation Yrotation
    JOINT LeftKnee
    {
      OFFSET 0.7532 -40.9383 0
      CHANNELS 6 Xposition Yposition Zposition Zrotation Xrotation Yrotation
      JOINT LeftAnkle
      {
        OFFSET 0 -40.1986 0
        CHANNELS 6 Xposition Yposition Zposition Zrotation Xrotation Yrotation
        JOINT LeftToe
        {
          OFFSET 0 -4.4182 9.239
          CHANNELS 6 Xposition Yposition Zposition Zrotation Xrotation Yrotation
          End Site
          {
            OFFSET 0 0 6.1981
          }
        }
      }
    }
  }
}
MOTION
Frames:	4
Frame Time:	0.0333333
5.72205e-005 65.662 3.42586 0 0 -0 0 8.7983 -4.7612 0 0 -0 0 8.0291 0.4195 0 0 -0 0 9.9351 -2.2114 0 0 -0 0 22.3885 -0.4656 0 0 -0 -0.0001 12.643 3.4389 0 0 -0 2.2603 21.606 7.4023 0 0 -12.5014 13.5163 -1.1332 -5.0146 88.1196 14.2451 10.6914 -0.0995 -28.05 -0.2431 -0.00160068 -0.00239207 0.000740045 0.0679 -23.3996 -0.1402 -8.4365e-005 7.00714e-005 -9.52055e-007 0.7932 -9.069 2.5189 9.93923e-017 -1.98785e-016 -1.59028e-015 -0.8272 -3.3923 0.5977 9.93923e-017 -5.96354e-016 -1.59028e-015 -0.5649 -2.3158 0.4082 -9.93923e-017 -5.96354e-016 -1.59028e-015 0.9159 -9.2044 0.2193 9.93923e-017 -1.98785e-016 -1.59028e-015 0.0117 -4.1944 -0.0248 -0.0128176 0.00232552 8.52707e-005 0.0071 -2.3249 -0.0142 9.93923e-017 5.96354e-016 -0 0.6113 -8.7231 -2.0637 9.93923e-017 -1.98785e-016 -1.59028e-015 -0.1927 -3.8059 -0.2383 -0.0160551 0.00299681 0.000857156 -0.1091 -2.1688 -0.1362 -2.48481e-016 0 3.18055e-015 -0.6151 -8.0947 -3.5641 9.93923e-017 -1.98785e-016 -1.59028e-015 -0.4882 -2.341 -0.6462 -0.0125865 0.0031206 0.00282719 -0.3575 -1.7167 -0.4742 0 1.98785e-016 -0 -1.42 -1.8761 1.4223 9.93923e-017 -1.98785e-016 -1.59028e-015 -1.1471 -3.4929 2.6334 9.93923e-017 -5.96354e-016 -1.59028e-015 -0.823 -2.3 1.6571 -9.93923e-017 -5.96354e-016 -1.59028e-015 -2.2603 21.606 7.4023 -0.865644 0.16582 7.03859 -13.5187 -1.1334 -5.0155 -88.0329 10.2057 -10.5567 0.0994 -28.0499 -0.2431 0.0015593 -0.00248883 -0.000788628 -0.0679 -23.3996 -0.1402 7.87605e-005 4.10553e-005 1.24965e-005 -0.7932 -9.0691 2.5189 -3.97569e-016 -7.95139e-016 3.18055e-015 0.8272 -3.3923 0.5977 -1.98785e-016 -3.97569e-016 3.18055e-015 0.565 -2.3158 0.4082 -1.98785e-016 0 3.18055e-015 -0.916 -9.2044 0.2193 -3.97569e-016 -7.95139e-016 3.18055e-015 -0.0117 -4.1944 -0.0248 0.0129473 0.00231697 -8.70038e-005 -0.0071 -2.3249 -0.0142 9.93923e-017 -7.95139e-016 1.59028e-015 -0.6113 -8.7231 -2.0637 -3.97569e-016 -7.95139e-016 3.18055e-015 0.1927 -3.8059 -0.2383 0.0163314 0.00303369 -0.000872333 0.1091 -2.1688 -0.1362 3.97569e-016 7.95139e-016 -3.18055e-015 0.6151 -8.0947 -3.564 -3.97569e-016 -7.95139e-016 3.18055e-015 0.4882 -2.341 -0.6462 0.0145763 0.00367772 -0.00326275 0.3574 -1.7166 -0.4742 9.93923e-017 -3.97569e-016 -0 1.4199 -1.8761 1.4221 -3.97569e-016 -7.95139e-016 3.18055e-015 1.1472 -3.4929 2.6336 -1.98785e-016 -3.97569e-016 3.18055e-015 0.8229 -2.3 1.6571 -1.98785e-016 0 3.18055e-015 -9.412 3.9771 -0.7758 3.42482 1.32465 -0.0626183 -0.7531 -40.938 0 0.000117508 0.717283 0.000978199 0 -40.1986 0 -3.4257 -2.04197 -0.0604716 8.88178e-016 -4.4182 9.239 6.47761e-025 0 -0 9.4119 3.9773 -0.7758 -3.42483 1.34017 0.0627307 0.7532 -40.9383 -2.22045e-016 -0.000193936 0.682302 -0.0013703 -8.88179e-016 -40.1986 0 3.42574 -2.02253 0.0595886 -8.88178e-016 -4.4182 9.239 -8.45714e-024 0 -7.40531e-025 
0.495481 0.567459 69.8497 -99.5467 -89.9887 -99.5356 0 8.7983 -4.7612 0.295216 4.03084 -0.142109 0 8.0291 0.4195 0.602729 8.06088 -0.306238 1.11022e-016 9.9351 -2.2114 0.602731 8.06088 -0.306238 -1.11022e-016 22.3885 -0.4656 -6.20553e-006 -14.0112 3.42779e-006 -0.0001 12.643 3.4389 1.37715e-007 -17.0041 -9.25455e-008 2.2603 21.606 7.4023 17.3817 -37.6077 -16.2557 13.5163 -1.1332 -5.0146 43.0132 -36.7833 80.7285 -0.0995 -28.05 -0.2431 -155.998 -54.4874 -136.853 0.0679 -23.3996 -0.1402 -22.4492 -8.78387 18.4313 0.7932 -9.069 2.5189 4.80245e-006 6.54403e-006 -1.05324e-005 -0.8272 -3.3923 0.5977 4.77052e-006 -2.15097e-005 -4.7842e-006 -0.5649 -2.3158 0.4082 0 7.95139e-015 -0 0.9159 -9.2044 0.2193 4.80245e-006 6.54403e-006 -1.05324e-005 0.0117 -4.1944 -0.0248 -0.0128012 0.00230419 8.58917e-005 0.0071 -2.3249 -0.0142 -1.32417e-031 -4.77083e-015 -1.59028e-015 0.6113 -8.7231 -2.0637 4.80245e-006 6.54403e-006 -1.05324e-005 -0.1927 -3.8059 -0.2383 -0.016038 0.00298206 0.000853323 -0.1091 -2.1688 -0.1362 -1.76556e-031 -3.18055e-015 -3.18055e-015 -0.6151 -8.0947 -3.5641 4.80245e-006 6.54403e-006 -1.05324e-005 -0.4882 -2.341 -0.6462 -0.0126013 0.00310838 0.00283267 -0.3575 -1.7167 -0.4742 3.18055e-015 -3.18055e-015 -3.18055e-015 -1.42 -1.8761 1.4223 4.80245e-006 6.54403e-006 -1.05324e-005 -1.1471 -3.4929 2.6334 4.77052e-006 -2.15097e-005 -4.7842e-006 -0.823 -2.3 1.6571 0 7.95139e-015 -0 -2.2603 21.606 7.4023 -18.5168 -37.4969 10.1008 -13.5187 -1.1334 -5.0155 -45.8866 -35.4889 -73.8977 0.0994 -28.0499 -0.2431 141.558 -67.9635 122.656 -0.0679 -23.3996 -0.1402 34.0634 -14.4138 -13.8426 -0.7932 -9.0691 2.5189 -1.59028e-014 -1.43125e-014 -0 0.8272 -3.3923 0.5977 -1.27222e-014 -1.19271e-014 1.98785e-015 0.565 -2.3158 0.4082 -9.54166e-015 -1.19271e-014 7.95139e-016 -0.916 -9.2044 0.2193 -1.59028e-014 -1.43125e-014 -0 -0.0117 -4.1944 -0.0248 0.0129437 0.00232243 -8.93028e-005 -0.0071 -2.3249 -0.0142 3.18055e-015 -1.66979e-014 -0 -0.6113 -8.7231 -2.0637 -1.59028e-014 -1.43125e-014 -0 0.1927 -3.8059 -0.2383 0.016329 0.00304153 -0.000882786 0.1091 -2.1688 -0.1362 -0 -7.95139e-016 -0 0.6151 -8.0947 -3.564 -1.59028e-014 -1.43125e-014 -0 0.4882 -2.341 -0.6462 0.0145842 0.00368776 -0.00326076 0.3574 -1.7166 -0.4742 -6.36111e-015 -7.95139e-016 3.18055e-015 1.4199 -1.8761 1.4221 -1.59028e-014 -1.43125e-014 -0 1.1472 -3.4929 2.6336 -1.27222e-014 -1.19271e-014 1.98785e-015 0.8229 -2.3 1.6571 -9.54166e-015 -1.19271e-014 7.95139e-016 -9.412 3.9771 -0.7758 -13.6369 -32.9491 -11.56 -0.7531 -40.938 7.10543e-015 -130.049 84.912 127.952 -1.77636e-015 -40.1986 0 0.843537 27.1037 -5.52676 -3.55271e-015 -4.4182 9.239 1.98785e-015 0 -0 9.4119 3.9773 -0.7758 13.632 -32.9489 11.5547 0.7532 -40.9383 0 130.051 84.9121 -127.959 -1.77636e-015 -40.1986 0 -0.84524 27.103 5.5234 -3.55271e-015 -4.4182 9.239 7.21371e-007 2.41289e-007 -1.66295e-006 
0.495481 0.567459 69.7141 -99.5468 -89.9887 -99.5357 0 8.7983 -4.7612 0.295416 3.89837 -0.142774 -5.55112e-017 8.0291 0.4195 0.602693 7.79589 -0.306815 0 9.9351 -2.2114 0.602695 7.79591 -0.306815 -1.11022e-016 22.3885 -0.4656 2.9057e-006 -13.2902 -1.3863e-006 -0.0001 12.643 3.4389 2.49344e-007 -16.2831 -7.96533e-008 2.2603 21.606 7.4023 16.9864 -36.8238 -16.6655 13.5163 -1.1332 -5.0146 43.3783 -36.6046 80.6454 -0.0995 -28.05 -0.2431 -156.304 -54.0817 -137.134 0.0679 -23.3996 -0.1402 -21.9038 -7.04516 18.0113 0.7932 -9.069 2.5189 -6.36111e-015 3.18055e-015 1.59028e-015 -0.8272 -3.3923 0.5977 0 4.77083e-015 -0 -0.5649 -2.3158 0.4082 -0 0 1.59028e-015 0.9159 -9.2044 0.2193 -6.36111e-015 3.18055e-015 1.59028e-015 0.0117 -4.1944 -0.0248 -0.0128277 0.00232911 8.2245e-005 0.0071 -2.3249 -0.0142 9.54166e-015 1.59028e-015 -1.59028e-015 0.6113 -8.7231 -2.0637 -6.36111e-015 3.18055e-015 1.59028e-015 -0.1927 -3.8059 -0.2383 -0.0160314 0.00301006 0.000866848 -0.1091 -2.1688 -0.1362 -9.54166e-015 1.59028e-015 -0 -0.6151 -8.0947 -3.5641 -6.36111e-015 3.18055e-015 1.59028e-015 -0.4882 -2.341 -0.6462 -0.0125808 0.00313818 0.00283565 -0.3575 -1.7167 -0.4742 8.82781e-032 -3.18055e-015 1.59028e-015 -1.42 -1.8761 1.4223 -6.36111e-015 3.18055e-015 1.59028e-015 -1.1471 -3.4929 2.6334 0 4.77083e-015 -0 -0.823 -2.3 1.6571 -0 0 1.59028e-015 -2.2603 21.606 7.4023 -18.1117 -36.7181 10.519 -13.5187 -1.1334 -5.0155 -45.8529 -35.7161 -73.9025 0.0994 -28.0499 -0.2431 142.102 -67.7009 123.182 -0.0679 -23.3996 -0.1402 33.3289 -12.7028 -13.8039 -0.7932 -9.0691 2.5189 3.25678e-007 -4.90014e-006 -2.63744e-006 0.8272 -3.3923 0.5977 -1.29963e-006 -4.76079e-006 -8.42324e-006 0.565 -2.3158 0.4082 6.4649e-006 -1.43349e-008 -3.17497e-006 -0.916 -9.2044 0.2193 3.25678e-007 -4.90014e-006 -2.63744e-006 -0.0117 -4.1944 -0.0248 0.012958 0.00231167 -8.73059e-005 -0.0071 -2.3249 -0.0142 2.26306e-006 -1.54983e-006 -1.93737e-006 -0.6113 -8.7231 -2.0637 3.25678e-007 -4.90014e-006 -2.63744e-006 0.1927 -3.8059 -0.2383 0.0163348 0.00304234 -0.000886937 0.1091 -2.1688 -0.1362 -6.36111e-015 -1.98785e-015 -0 0.6151 -8.0947 -3.564 3.25678e-007 -4.90014e-006 -2.63744e-006 0.4882 -2.341 -0.6462 0.014569 0.00367201 -0.00325917 0.3574 -1.7166 -0.4742 2.78273e-006 -9.86906e-007 1.43213e-006 1.4199 -1.8761 1.4221 3.25678e-007 -4.90014e-006 -2.63744e-006 1.1472 -3.4929 2.6336 -1.29963e-006 -4.76079e-006 -8.42324e-006 0.8229 -2.3 1.6571 6.4649e-006 -1.43349e-008 -3.17497e-006 -9.412 3.9771 -0.7758 -13.637 -32.949 -11.56 -0.7531 -40.938 -7.10543e-015 -130.048 84.912 127.952 -1.77636e-015 -40.1986 -1.42109e-014 0.843526 27.1037 -5.52675 3.55271e-015 -4.4182 9.239 -1.98785e-016 1.59028e-015 6.36111e-015 9.4119 3.9773 -0.7758 13.632 -32.9489 11.5547 0.7532 -40.9383 -7.10543e-015 130.051 84.9121 -127.959 1.77636e-015 -40.1986 1.42109e-014 -0.845238 27.103 5.5234 0 -4.4182 9.239 4.31482e-006 6.38952e-007 -3.98139e-006 
0.495481 0.567459 69.5784 -99.5469 -89.9887 -99.5358 1.11022e-016 8.7983 -4.7612 0.295588 3.76558 -0.143431 -5.55112e-017 8.0291 0.4195 0.602604 7.53035 -0.307377 0 9.9351 -2.2114 0.602605 7.53033 -0.307377 0 22.3885 -0.4656 1.60495e-006 -12.5689 -4.97676e-007 -0.0001 12.643 3.4389 -2.27919e-007 -15.5617 3.49279e-007 2.2603 21.606 7.4023 16.6017 -36.037 -17.0647 13.5163 -1.1332 -5.0146 43.7454 -36.4248 80.5624 -0.0995 -28.05 -0.2431 -156.605 -53.6765 -137.407 0.0679 -23.3996 -0.1402 -21.3449 -5.3028 17.5742 0.7932 -9.069 2.5189 -3.18055e-015 0 -0 -0.8272 -3.3923 0.5977 -2.61919e-006 4.07375e-006 4.03582e-006 -0.5649 -2.3158 0.4082 4.38076e-007 -5.70229e-006 -1.63348e-006 0.9159 -9.2044 0.2193 -3.18055e-015 0 -0 0.0117 -4.1944 -0.0248 -0.0128251 0.00233363 9.50905e-005 0.0071 -2.3249 -0.0142 3.88875e-006 -1.33494e-005 -3.25269e-006 0.6113 -8.7231 -2.0637 -3.18055e-015 0 -0 -0.1927 -3.8059 -0.2383 -0.0160655 0.00298727 0.000859871 -0.1091 -2.1688 -0.1362 -1.64152e-007 4.957e-006 2.43908e-006 -0.6151 -8.0947 -3.5641 -3.18055e-015 0 -0 -0.4882 -2.341 -0.6462 -0.0125785 0.00311579 0.00282689 -0.3575 -1.7167 -0.4742 -1.70794e-006 5.38112e-006 8.51146e-007 -1.42 -1.8761 1.4223 -3.18055e-015 0 -0 -1.1471 -3.4929 2.6334 -2.61919e-006 4.07375e-006 4.03582e-006 -0.823 -2.3 1.6571 4.38076e-007 -5.70229e-006 -1.63348e-006 -2.2603 21.606 7.4023 -17.7174 -35.9365 10.9265 -13.5187 -1.1334 -5.0155 -45.8232 -35.9407 -73.9095 0.0994 -28.0499 -0.2431 142.634 -67.4384 123.692 -0.0679 -23.3996 -0.1402 32.5945 -10.9851 -13.7428 -0.7932 -9.0691 2.5189 -9.54166e-015 3.18055e-015 1.19271e-015 0.8272 -3.3923 0.5977 -1.59028e-014 0 1.19271e-015 0.565 -2.3158 0.4082 -1.27222e-014 1.19271e-015 -3.97569e-016 -0.916 -9.2044 0.2193 -9.54166e-015 3.18055e-015 1.19271e-015 -0.0117 -4.1944 -0.0248 0.0129412 0.00230937 -9.02111e-005 -0.0071 -2.3249 -0.0142 3.18055e-015 -2.78299e-015 -3.97569e-016 -0.6113 -8.7231 -2.0637 -9.54166e-015 3.18055e-015 1.19271e-015 0.1927 -3.8059 -0.2383 0.0163418 0.00302077 -0.000866692 0.1091 -2.1688 -0.1362 -1.27222e-014 2.38542e-015 7.95139e-016 0.6151 -8.0947 -3.564 -9.54166e-015 3.18055e-015 1.19271e-015 0.4882 -2.341 -0.6462 0.0145954 0.00366638 -0.00326418 0.3574 -1.7166 -0.4742 -0 -3.97569e-015 -0 1.4199 -1.8761 1.4221 -9.54166e-015 3.18055e-015 1.19271e-015 1.1472 -3.4929 2.6336 -1.59028e-014 0 1.19271e-015 0.8229 -2.3 1.6571 -1.27222e-014 1.19271e-015 -3.97569e-016 -9.412 3.9771 -0.7758 -13.637 -32.949 -11.56 -0.7531 -40.938 -7.10543e-015 -130.049 84.912 127.952 0 -40.1986 1.42109e-014 0.843526 27.1037 -5.52676 0 -4.4182 9.239 -2.18663e-015 -7.95139e-016 6.36111e-015 9.4119 3.9773 -0.7758 13.632 -32.9489 11.5547 0.7532 -40.9383 0 130.051 84.9121 -127.959 0 -40.1986 -1.42109e-014 -0.845228 27.1031 5.5234 0 -4.4182 9.239 -2.65561e-006 -1.06623e-007 -1.55351e-006 
